<!-- icon666.com - MILLIONS vector ICONS FREE --><svg width="309" height="70" viewBox="0 0 512.00144 512" xmlns="http://www.w3.org/2000/svg"><path d="m418.132812 367.871094c-.121093 9.113281-6.988281 16.710937-16.042968 17.75-50.515625 6.402344-139.433594 33.367187-194.558594 41.046875-22.027344 3.316406-41.292969 16.601562-52.222656 36.011719l-16.214844-12.714844-52.054688-40.707032c16.300782-3.328124 25.34375-59.390624 50.691407-59.390624h261.972656c4.832031-.058594 9.488281 1.804687 12.945313 5.183593 3.457031 3.375 5.429687 7.988281 5.484374 12.820313zm0 0" fill="#bfa885"></path><path d="m392.535156 367.871094c-.121094 9.113281-6.992187 16.710937-16.042968 17.75-50.519532 6.402344-139.433594 33.367187-194.5625 41.046875-16.667969 2.199219-31.929688 10.5-42.835938 23.296875l-52.054688-40.707032c16.300782-3.328124 25.34375-59.390624 50.691407-59.390624h236.371093c4.832032-.058594 9.492188 1.804687 12.949219 5.183593 3.457031 3.375 5.429688 7.988281 5.484375 12.820313zm0 0" fill="#ffe0b2"></path><path d="m156.246094 476.074219-19.710938 27.394531h-110.933594c-9.425781 0-17.066406-7.640625-17.066406-17.066406v-33.195313c.023438-5.886719 3.046875-11.355469 8.019532-14.507812l55.125-34.390625c3.046874-1.9375 6.988281-1.734375 9.8125.511718l73.644531 58.96875c1.839843 1.4375 3.003906 3.574219 3.210937 5.902344.210938 2.328125-.550781 4.636719-2.101562 6.382813zm0 0" fill="#3f51b5" style="fill: rgb(65, 80, 164);"></path><path d="m503.46875 315.734375v25.601563c0 4.710937-3.820312 8.53125-8.535156 8.53125h-477.867188c-4.710937 0-8.53125-3.820313-8.53125-8.53125v-25.601563zm0 0" fill="#c52828"></path><path d="m477.867188 315.734375v25.601563c0 4.710937-3.820313 8.53125-8.53125 8.53125h-452.269532c-4.710937 0-8.53125-3.820313-8.53125-8.53125v-25.601563zm0 0" fill="#f44335" style="fill: rgb(255, 17, 0);"></path><path d="m8.535156 264.535156h494.933594v51.199219h-494.933594zm0 0" fill="#c52828"></path><path d="m8.535156 264.535156h469.332032v51.199219h-469.332032zm0 0" fill="#f44335" style="fill: rgb(255, 17, 0);"></path><path d="m503.46875 264.535156h-494.933594l75.007813-249.941406c1.050781-3.601562 4.355469-6.070312 8.105469-6.058594h328.703124c3.75-.011718 7.054688 2.457032 8.109376 6.058594zm0 0" fill="#c52828"></path><path d="m477.867188 264.535156h-469.332032l75.007813-249.941406c1.050781-3.601562 4.355469-6.070312 8.105469-6.058594h303.105468c3.75-.011718 7.054688 2.457032 8.105469 6.058594zm0 0" fill="#f44335" style="fill: rgb(255, 17, 0);"></path><path d="m204.800781 264.535156h102.398438v8.53125c0 23.566406-19.101563 42.667969-42.664063 42.667969h-17.066406c-23.566406 0-42.667969-19.101563-42.667969-42.667969zm0 0" fill="#c52828"></path><path d="m426.667969 136.535156c0-51.84375-76.410157-93.867187-170.667969-93.867187s-170.664062 42.023437-170.664062 93.867187c0 51.839844 76.40625 93.867188 170.664062 93.867188s170.667969-42.027344 170.667969-93.867188zm0 0" fill="#ffeb3a" style="fill: rgb(254, 233, 42);"></path><path d="m392.535156 136.535156c0-37.703125-61.128906-68.269531-136.535156-68.269531s-136.53125 30.566406-136.53125 68.269531 61.125 68.265625 136.53125 68.265625 136.535156-30.5625 136.535156-68.265625zm0 0" fill="#ff5722"></path><path d="m373.027344 136.535156c0-28.277344-52.394532-51.199218-117.027344-51.199218s-117.027344 22.921874-117.027344 51.199218 52.394532 51.199219 117.027344 51.199219 117.027344-22.921875 117.027344-51.199219zm0 0" fill="#fec108" style="fill: rgb(255, 191, 0);"></path><path d="m503.46875 358.402344h-494.933594c-4.714844 0-8.535156-3.820313-8.535156-8.535156v-85.332032c0-4.714844 3.820312-8.535156 8.535156-8.535156h494.933594c4.710938 0 8.53125 3.820312 8.53125 8.535156v85.332032c0 4.714843-3.820312 8.535156-8.53125 8.535156zm-486.402344-17.066406h477.867188v-68.269532h-477.867188zm0 0" fill="#000000" style="fill: rgb(0, 0, 0);"></path><path d="m8.535156 273.066406c-.832031.003906-1.65625-.117187-2.449218-.355468-2.167969-.652344-3.992188-2.136719-5.0625-4.128907-1.0742192-1.992187-1.3125-4.328125-.664063-6.496093l76.800781-256c1.082032-3.613282 4.402344-6.085938 8.175782-6.085938h170.664062c4.714844 0 8.535156 3.820312 8.535156 8.535156 0 4.710938-3.820312 8.53125-8.535156 8.53125h-164.316406l-74.972656 249.917969c-1.082032 3.609375-4.40625 6.082031-8.175782 6.082031zm0 0" fill="#000000" style="fill: rgb(0, 0, 0);"></path><path d="m503.46875 273.066406c-3.769531 0-7.09375-2.472656-8.175781-6.082031l-74.972657-249.917969h-164.320312c-4.710938 0-8.53125-3.820312-8.53125-8.53125 0-4.714844 3.820312-8.535156 8.53125-8.535156h170.667969c3.769531 0 7.09375 2.472656 8.175781 6.085938l76.796875 256c.652344 2.167968.414063 4.503906-.660156 6.496093-1.074219 1.992188-2.894531 3.476563-5.0625 4.128907-.796875.234374-1.621094.355468-2.449219.355468zm0 0" fill="#000000" style="fill: rgb(0, 0, 0);"></path><path d="m264.535156 324.265625h-17.066406c-28.265625-.027344-51.171875-22.933594-51.203125-51.199219v-8.53125c0-4.714844 3.824219-8.535156 8.535156-8.535156h102.398438c4.714843 0 8.535156 3.820312 8.535156 8.535156v8.53125c-.027344 28.265625-22.933594 51.171875-51.199219 51.199219zm-51.199218-51.199219c0 18.851563 15.28125 34.132813 34.132812 34.132813h17.066406c18.851563 0 34.132813-15.28125 34.132813-34.132813zm0 0" fill="#000000" style="fill: rgb(0, 0, 0);"></path><path d="m503.46875 324.265625h-494.933594c-4.714844 0-8.535156-3.820313-8.535156-8.53125 0-4.714844 3.820312-8.535156 8.535156-8.535156h494.933594c4.710938 0 8.53125 3.820312 8.53125 8.535156 0 4.710937-3.820312 8.53125-8.53125 8.53125zm0 0" fill="#000000" style="fill: rgb(0, 0, 0);"></path><path d="m256 238.933594c-100.480469 0-179.199219-44.980469-179.199219-102.398438 0-57.421875 78.71875-102.402344 179.199219-102.402344s179.199219 44.980469 179.199219 102.402344c0 57.417969-78.71875 102.398438-179.199219 102.398438zm0-187.734375c-87.894531 0-162.132812 39.085937-162.132812 85.335937s74.238281 85.332032 162.132812 85.332032 162.132812-39.082032 162.132812-85.332032-74.238281-85.335937-162.132812-85.335937zm0 0" fill="#000000" style="fill: rgb(0, 0, 0);"></path><path d="m256 238.933594c-4.710938 0-8.53125-3.820313-8.53125-8.53125v-187.734375c0-4.714844 3.820312-8.535157 8.53125-8.535157 4.714844 0 8.535156 3.820313 8.535156 8.535157v187.734375c0 4.710937-3.820312 8.53125-8.535156 8.53125zm0 0" fill="#000000" style="fill: rgb(0, 0, 0);"></path><path d="m145.417969 216.515625c-3.628907.003906-6.863281-2.289063-8.0625-5.710937-1.195313-3.425782-.101563-7.234376 2.738281-9.492188l100.101562-79.675781-98.421874-49.027344c-2.800782-1.316406-4.667969-4.042969-4.882813-7.132813-.214844-3.085937 1.261719-6.046874 3.851563-7.734374 2.59375-1.691407 5.894531-1.847657 8.632812-.40625l110.421875 54.996093c2.609375 1.300781 4.375 3.839844 4.683594 6.738281.308593 2.902344-.882813 5.757813-3.164063 7.574219l-110.589844 88.011719c-1.507812 1.207031-3.378906 1.863281-5.308593 1.859375zm0 0" fill="#000000" style="fill: rgb(0, 0, 0);"></path><path d="m85.667969 139.546875c-4.714844.148437-8.65625-3.550781-8.804688-8.265625-.148437-4.710938 3.554688-8.652344 8.265625-8.800781l170.324219-11.042969c4.714844-.300781 8.78125 3.273438 9.082031 7.988281.300782 4.710938-3.277344 8.777344-7.988281 9.078125l-170.359375 11.023438c-.144531.019531-.332031.019531-.519531.019531zm0 0" fill="#000000" style="fill: rgb(0, 0, 0);"></path><path d="m366.585938 216.515625c-1.929688.003906-3.804688-.652344-5.308594-1.859375l-110.59375-88.011719c-2.277344-1.816406-3.472656-4.671875-3.164063-7.574219.308594-2.898437 2.074219-5.4375 4.683594-6.738281l110.464844-54.996093c2.738281-1.441407 6.042969-1.285157 8.632812.40625 2.59375 1.6875 4.066407 4.648437 3.851563 7.734374-.210938 3.089844-2.082032 5.816407-4.882813 7.132813l-98.464843 49.027344 100.105468 79.675781c2.835938 2.257812 3.933594 6.066406 2.734375 9.492188-1.199219 3.421874-4.433593 5.714843-8.058593 5.710937zm0 0" fill="#000000" style="fill: rgb(0, 0, 0);"></path><path d="m426.335938 139.546875c-.1875 0-.375 0-.554688 0l-170.328125-11.042969c-4.710937-.300781-8.289063-4.367187-7.984375-9.078125.300781-4.714843 4.367188-8.289062 9.078125-7.988281l170.324219 11.042969c4.714844.148437 8.414062 4.089843 8.265625 8.800781-.148438 4.714844-4.089844 8.414062-8.800781 8.265625zm0 0" fill="#000000" style="fill: rgb(0, 0, 0);"></path><path d="m136.535156 512h-110.933594c-14.140624 0-25.601562-11.460938-25.601562-25.597656v-33.195313c-.015625-8.808593 4.496094-17.003906 11.949219-21.703125l55.191406-34.4375c6.101563-3.851562 13.96875-3.429687 19.628906 1.046875l73.699219 59.007813c3.597656 2.847656 5.894531 7.027344 6.363281 11.589844s-.925781 9.121093-3.871093 12.636718l-19.496094 27.101563c-1.605469 2.230469-4.183594 3.550781-6.929688 3.550781zm-60.375-100.511719-55.082031 34.457031c-2.476563 1.589844-3.984375 4.320313-4.011719 7.261719v33.195313c0 4.710937 3.820313 8.53125 8.535156 8.53125h106.554688l17.179688-23.839844c.164062-.234375.34375-.460938.535156-.675781zm0 0" fill="#000000" style="fill: rgb(0, 0, 0);"></path><path d="m155.308594 471.210938c-3.101563 0-5.957032-1.683594-7.457032-4.394532-1.503906-2.710937-1.421874-6.023437.21875-8.652344 12.105469-21.707031 33.679688-36.492187 58.292969-39.945312 26.949219-3.753906 62.753907-12.355469 97.382813-20.660156 36.691406-8.804688 71.335937-17.117188 97.226562-20.402344 4.816406-.453125 8.527344-4.445312 8.628906-9.285156-.125-5.339844-4.546874-9.574219-9.890624-9.46875h-261.972657c-9.132812 0-17.410156 16.425781-24.066406 29.625-7.386719 14.660156-13.769531 27.308594-24.882813 29.59375-4.617187.945312-9.125-2.035156-10.066406-6.65625-.945312-4.617188 2.035156-9.125 6.652344-10.066406 3.234375-1.070313 9.386719-13.261719 13.058594-20.550782 8.71875-17.382812 19.617187-39.011718 39.261718-39.011718h262.015626c14.203124-.375 26.164062 10.535156 27.089843 24.714843.929688 14.175781-9.503906 26.554688-23.632812 28.035157-24.996094 3.167968-60.800781 11.761718-95.429688 20.070312-34.988281 8.40625-71.234375 17.066406-98.988281 20.960938-19.554688 2.882812-36.636719 14.75-46.164062 32.074218-1.566407 2.511719-4.320313 4.03125-7.277344 4.019532zm0 0" fill="#000000" style="fill: rgb(0, 0, 0);"></path><path d="m256 392.535156h-68.265625c-4.714844 0-8.535156-3.820312-8.535156-8.535156 0-4.710938 3.820312-8.53125 8.535156-8.53125h68.265625c4.714844 0 8.535156-3.820312 8.535156-8.535156 0-4.710938-3.820312-8.53125-8.535156-8.53125h-110.933594c-4.710937 0-8.53125-3.820313-8.53125-8.535156 0-4.710938 3.820313-8.53125 8.53125-8.53125h110.933594c14.140625 0 25.601562 11.460937 25.601562 25.597656 0 14.140625-11.460937 25.601562-25.601562 25.601562zm0 0" fill="#000000" style="fill: rgb(0, 0, 0);"></path></svg>